<svg xmlns="http://www.w3.org/2000/svg" viewBox="0 0 1132.07 1132.07"><defs><style>.cls-1{fill:#fff;}</style></defs><title>Logo2Recurso 4</title><g id="Capa_2" data-name="Capa 2"><g id="Capa_1-2" data-name="Capa 1"><path class="cls-1" d="M717.7,0l-566,151.67L0,717.7l414.36,414.37,566-151.67,151.67-566ZM955,522.23c-6.39-28.22-44.74-33-82-36.74-58.05-5.86-126.21-18.64-132.07-96.4v.54c-2.13-25,4.26-50.07,20.23-70.84,25-32.48,69.77-49.52,112.91-49.52,57.51,0,117.16,29.82,126.75,98l-53.26,2.13c-7.45-33.55-43.67-47.93-76.15-47.4-25,.53-52.73,9.05-67.64,28.23-7.46,9.58-10.12,21.83-9,34.61,2.66,38.35,44.73,43.14,84.67,46.87,51.13,6.39,114.5,19.7,128.88,79.35a132.28,132.28,0,0,1,2.67,24.5c0,44.52-27.38,77.4-64.16,96h-6.31a11.64,11.64,0,0,0-10.65,7.33,167.05,167.05,0,0,1-22.42,6.42,25.21,25.21,0,0,0-5.07-5.8c-8.9-7.5-22.41-8.56-36.08-2.84A96.45,96.45,0,0,0,847.61,647c-51.09-8.23-103.42-41.44-109.37-98.63l-.53-10.12L792,537.15l.54,8V543c3.72,34.62,45.8,52.73,80.41,52.73,39.94,0,83.62-22.37,83.62-60.71A60.15,60.15,0,0,0,955,522.23Zm13,114.3c-3.66,4.09-7.11,8.61-11.2,12.92H940.45A6.48,6.48,0,0,1,934,643a6.63,6.63,0,0,1,6.46-6.46Zm-475.27-363H719.61v53.79H547.06V432.23H715.88v54.32H547.06V592H720.14v53.79h-6.32a20.64,20.64,0,0,0-.32-5.5l-.12-.48a11.6,11.6,0,0,0-8.11-7.93,11.44,11.44,0,0,0-10.86,2.73l-.12.11c-2.9,2.9-6.33,6.74-9.89,11.07H649.68a12.07,12.07,0,0,0-4.25-12.31,11.08,11.08,0,0,0-14.8.12c-4.41,3.8-8.82,7.89-13.16,12.19H558.36a27.69,27.69,0,0,0-2-2.37c-6.2-6.64-15.21-9.86-25.37-9.07h-.13c-9.59,1-18.35,5.23-26.06,11.43h-12.1Zm146.32,374.2c-.65-.65-1.3-.65-2.16,0-25.62,28.42-39.61,46.93-51.24,67.81-5.16,9.26-8.61,17.23-10.11,23.9-3.23,21.1,18.08,9.9,27.77,3.87,12.27-7.53,26-18.73,39.83-31.64L619.9,747.84c-23.26,14.64-38.33,20.23-49.31,13.77-20.23-12.48.43-47.57,8.83-60.49,14-22.82,34.45-46.5,54.47-63.73,5.81-5.16,13.78,2.8,10.33,8.62-10.33,15.5-28.63,35.73-46.72,55.54,9.69-14.86,22.4-30.36,41.56-51.67A1.44,1.44,0,0,0,639.06,647.73Zm-106.35,4.52c-22,1.51-41.34,36-43.92,54.47-1.72,12.91,1.07,24.32,10.76,31.43,15.91,10.18,34.1,3.43,48-7.26,7.8-6.63,17-15.09,23.89-22-4.31,5.81-10.12,17.87-12.06,28.85-.73.66-1.56,1.4-2.43,2.15a10.12,10.12,0,0,1-1,1.08c-14.86,13.13-35.52,18.73-54.25,12.48-19.81-6.89-27.56-26.91-25.84-45.85,4.09-27.56,26.48-65.23,55.55-68.25,19.37-1.51,30.35,13.56,27.77,31-3.45,25.62-24.11,53.18-41.55,69.54a27.78,27.78,0,0,1-15.29-3.66c17.87-15.07,32.94-34.66,40.48-54.9C547.35,669.69,549.28,651.17,532.71,652.25Zm-183-16.76a49.31,49.31,0,0,0-9.21-29.41A48.37,48.37,0,0,0,324,591.43c32.45-9.31,62.21-31.28,78.26-70.26H264.27V467.38H465.05c-2.66,31.42-5.33,52.19-10.12,64.44v-.53C437.41,580.21,395.85,617.12,349.66,635.49Zm60.55-.68c-.86-.21-1.5.22-1.72,1.29-.65,11.41,10.12,21.32,20.24,23l-11.84,9.26c-9.26-5-16.37-13.57-17.87-21.53-2.37-12.06,7.53-19.38,13.56-21.1,6.24-2.37,12.06,2.8,9.69,8.18-1.72,4.31-6.68,8.18-8.61,10.55-2.37-2.8-2.37-4.52-2.16-8A1.47,1.47,0,0,0,410.21,634.81ZM285,270.86c71.37,0,157.64,36.75,177.35,135.81H404.87c-14.91-60.18-72.43-82-119.83-82-73,0-129.41,57-129.41,135.27,0,66,39.61,117.46,95.34,132.43a194,194,0,0,0-24.58,10.49,271.25,271.25,0,0,0-34.16,21.73c-54.89-31.32-90.39-91-90.39-164.65C101.84,349.68,182.26,270.86,285,270.86Zm-57.17,435c-8.4-1.93-16.36-4.52-30.14-8.82-3.23-1.51-5.17-5.17-3.66-8.4,1.51-3.44,5.17-5.16,8.4-3.66,48.22,17.87,107.21,15.72,126.58-35.09,4.31-11.19,3.66-24.11-3-33.37-18.73-26.48-68.25-9.69-90,1.94-43.7,23-91.28,67.81-109.15,105.7-3.66,8-5.6,14.43-5.6,19.6,0,15.5,13.78,13.77,23.9,8.82,20.24-10.33,42.2-33.8,56-50.81l.22-.21L215,705.64c-18.51,21.53-40,46.29-63.94,58.34-19.16,10.34-43.49,4.31-42.62-20.67.21-7.53,2.79-16.14,6.88-24.75,19.17-40.48,67.17-86.76,113.46-111.31,30.57-15.71,84-31.64,107.64,1.73,10.12,13.77,10.12,31.21,4.74,45.64C326.26,693.58,286.21,717.27,227.87,705.85ZM217.1,682.17c16.15-20.66,29.93-39.61,45.22-62.64a5.77,5.77,0,0,1,8.82-1.73c3.23,1.94,3.88,5.6,1.94,8.83-13.56,20.45-26,37.46-40.47,56.4l-5,6.46v.22c-7.53-1.94-10.33-3-13.56-3.88ZM216.46,636a240.56,240.56,0,0,1,21.95-13.18,143,143,0,0,1,23.41-9.81,11.66,11.66,0,0,0-3.73,3.79C252,626.11,246,634.76,240,643.27A181.81,181.81,0,0,1,216.46,636Zm57.45-22.4a11.27,11.27,0,0,0-6.8-2.17,99.56,99.56,0,0,1,26-4c12.09,0,22.72,3.28,28.84,11.94,4.55,6.3,5.91,15.06,3.89,23.76A167.67,167.67,0,0,1,285,648.45q-10.21,0-20.1-1c4-5.73,8.1-11.72,12.31-18.06l.12-.19C280.72,623.61,279.23,617,273.91,613.64Zm43.3,129.46a6.7,6.7,0,0,1-9.26-.65,6.52,6.52,0,0,1,.86-9.25c21.32-17.87,45-42.63,87-87.41a24.51,24.51,0,0,0,5.6,13.13l-6,6.46C363.28,699.18,339,724.8,317.21,743.1Zm115.17,2.37a6.72,6.72,0,0,1-1.59,1c-15,11.93-32.83,23.37-45.77,18.16-14.42-5.81-14.64-22.61-10.11-35.31,4.3-12.92,14.2-26.26,24.54-38.53,6.89-8,18.73-21.53,33.37-31.65,3.23-1.51,5.81-.65,7.75,2.15a6.06,6.06,0,0,1-1.29,8.83c-11,7.75-23.69,18.08-37.68,37.89-12.92,18.73-22.17,38.32-12.27,43.7,2.8,1.51,7.53,1.29,15.07-2.8s16.58-10.55,26.26-19.16a8,8,0,0,1,1-.69c5.48-4.85,11.13-10,16.88-15.45-3.44,7.53-5.81,14.85-6,23.25Zm28.42,19.16c-8.61-3.45-14.85-12.7-15.28-25.84-.65-23.89,20.23-53.17,34-56.62a113.75,113.75,0,0,0-6.24,21.32c-22.61,29.06-14.86,46.28-8,49.08,4.95,1.94,11.63.43,21.1-4.73a43.08,43.08,0,0,0,12.27,7.75C485.56,764.2,472,768.93,460.8,764.63Zm57.91,98.17c-13.78-.22-24.54-9-23.9-22.18.65-12.27,10.55-25.61,30.36-37.46,21.1-12,47.15-18.08,79.44-32.5-5,7.1-9.47,13.34-15.29,20.45-23.25,8.83-42.19,14.42-57.48,23.25-18.3,10.76-24.11,21.1-24.11,26.91-.21,5.38,4.09,8.61,11,8.61,29.06,0,60.5-40.26,75.35-59.85,38.32-55.11,6-5.38,74.27-112.38,7.75-14.21,21.53-31.43,29.5-39.39a6.53,6.53,0,0,1,10.76,3c1.29,6.46-1.94,12.27-4.73,17.65-3.23,5.17-7.11,11.2-12.06,17.87s-11.25,14.23-18,21.66l0,.09-.22.21.27-.3,27.72-43.19c1.29-1.72-1.51-3.23-2.59-1.72-32.07,49.73-57.91,91.07-85,131.54C584.8,825.55,551.22,862.8,518.71,862.8Zm171.8-129.39c-2,1.78-4,3.53-5.88,5.22a6.79,6.79,0,0,1-.8.81q-5.8,5.16-11.62,9.69c-11.63,8.61-29.71,19.37-41.77,26.26l-10.54,6.46L635,758.6c6.25-4.09,24.55-15.93,29.28-19.59,1.22-.93,2.42-1.92,3.62-2.93a7.86,7.86,0,0,1,.69-.73,334.73,334.73,0,0,0,25.18-22.61A69.05,69.05,0,0,0,690.51,733.41Zm107.64,0c-4.95,4.31-9.26,8.4-13.78,12.06a5.49,5.49,0,0,1-2.06,1.18c-1.47,1.14-2.93,2.24-4.4,3.34-12.92,10.12-28.85,16.58-43.49,17.22s-30.35-4.3-36.59-18.94C681.46,711.24,723,657,760.47,641.7c23.68-9.9,43.49,3.23,37.68,28.42C789.54,705.85,737.44,727.81,711,719a67.76,67.76,0,0,1,5.38-12.27c16.15,4.09,41.12-5.6,56-18.73,8.19-6.89,19-23.9,11.63-32.94-2.8-3.45-12.49-3.88-24.33,1.5C740,666,716.56,692.51,709.67,713s-.22,42.41,24.11,41.33c11.84-.64,25.19-5.81,36.38-14.42,4.09-3.23,8-6.46,12.27-10.12a6.29,6.29,0,0,1,1.88-1.17c5.62-4.89,11.25-10.16,17.07-15.84A68.75,68.75,0,0,0,798.15,733.41ZM897.88,740a144.43,144.43,0,0,1-12.33,10c-12.91,10.12-28.84,16.58-43.48,17.22s-30.36-4.3-36.6-18.94c-16.36-37.25,25.19-91.72,62.65-107,23.68-9.9,43.48,3.44,37.67,28.85a48.52,48.52,0,0,1-10.12,20.23c-14,18.52-23.25,3.45-15.5-3.22a32.09,32.09,0,0,0,6.46-6.68c5.81-8.61,10.77-19.59,5.38-26.69-3.44-4.53-11.19-4.74-23,.64-19.81,9.69-44.78,37.68-51.67,58.56s-1.08,43.06,24.11,41.33c11.84-.64,25.19-5.81,36.38-14.42,1.59-1.25,3.14-2.5,4.69-3.78a6.87,6.87,0,0,1,.69-.74c10.55-8.61,22-19.16,32.94-30.14a104.07,104.07,0,0,0-10.76,28.2C902.89,735.64,900.42,737.81,897.88,740Zm79.38-.54a107.86,107.86,0,0,1-9.68,8.18c-8,6-15.29,11.41-22.18,14.64-7.1,3.44-14.21,5.17-21.74,2.58-15.5-4.73-17.66-21.09-14.43-34.44,8.18-31.86,31.65-58.13,62.87-93.87,14.42-16.14,29.06-31.64,39.61-40.47,5.38-4.74,13.35,1.72,9.9,8-5.16,9.26-12.27,19.17-20.66,29.71h-5.6l14.21-16.36a1.53,1.53,0,1,0-2.37-1.93c-13.78,15.5-54.25,64.15-71.48,88.26-11.19,15.72-20.88,43.06-8,48.87,6.24,2.37,14.42-1.72,31.86-15.28,3.23-2.37,6-4.74,9.26-7.54a6.41,6.41,0,1,1,8.39,9.69ZM948.42,691c9.25-12.06,20-25.62,31-38.54H985C973.17,665.6,960.69,678.73,948.42,691Zm75.35-41.55H982c3.66-4.52,7.54-8.61,10.77-12.7h31a6.35,6.35,0,1,1,0,12.7Z"/></g></g></svg>